<svg width="110" height="110" viewBox="0 0 110 110" fill="none" xmlns="http://www.w3.org/2000/svg">
<path d="M1.73502 29.1906C3.33464 14.6877 14.6877 3.33464 29.1906 1.73502C37.7934 0.786163 47.2574 0 55 0C62.7466 0 72.2162 0.78696 80.8225 1.73646C95.3189 3.33581 106.669 14.6802 108.268 29.1767C109.216 37.7676 110 47.2273 110 55C110 62.7727 109.216 72.2324 108.268 80.8233C106.669 95.3198 95.3189 106.664 80.8225 108.264C72.2162 109.213 62.7466 110 55 110C47.2574 110 37.7934 109.214 29.1906 108.265C14.6877 106.665 3.33464 95.3123 1.73502 80.8094C0.786163 72.2066 0 62.7426 0 55C0 47.2574 0.786163 37.7934 1.73502 29.1906Z" fill="#4A474C"/>
<g clip-path="url(#clip0)">
<path d="M23.4994 35.4633V42.8074H26.2385V35.4633L29.5526 24.6509H26.7585L24.8962 31.778L22.9511 24.6509H20.0476C20.559 26.1686 21.1525 27.8576 21.8283 29.7185C22.6867 32.2115 23.2434 34.1268 23.4994 35.4633Z" fill="white"/>
<path d="M33.2233 42.9971C34.4835 42.9971 35.4511 42.5363 36.1268 41.615C36.6384 40.9465 36.8938 39.8805 36.8938 38.4174V33.6749C36.8938 32.2298 36.6378 31.1726 36.1268 30.5041C35.4511 29.5828 34.4835 29.1221 33.2233 29.1221C31.9994 29.1221 31.0406 29.5828 30.3469 30.5041C29.8358 31.1726 29.5801 32.2298 29.5801 33.6749V38.4173C29.5801 39.8624 29.8355 40.9285 30.3469 41.6149C31.0409 42.5363 31.9994 42.9971 33.2233 42.9971ZM32.0452 33.187C32.0452 31.9404 32.4379 31.3171 33.2233 31.3171C34.0087 31.3171 34.4011 31.9404 34.4011 33.187V38.8776C34.4011 40.1427 34.0087 40.7745 33.2233 40.7745C32.4379 40.7745 32.0452 40.1423 32.0452 38.8776V33.187Z" fill="white"/>
<path d="M40.7559 42.997C41.6696 42.997 42.6103 42.4369 43.5779 41.3165V42.807H46.0707V29.2847H43.5779V39.6093C43.0299 40.3862 42.5098 40.7744 42.016 40.7744C41.687 40.7744 41.4952 40.5757 41.4407 40.1783C41.4224 40.1421 41.4132 39.8257 41.4132 39.2297V29.2847H38.9204V39.9619C38.9204 40.883 38.994 41.5603 39.1397 41.9941C39.3774 42.6626 39.9159 42.997 40.7559 42.997Z" fill="white"/>
<path d="M90.3004 24.498C90.0633 23.4319 89.5377 22.5378 88.7253 21.8154C87.9123 21.093 86.9765 20.6683 85.917 20.5418C82.557 20.1805 77.4894 20 70.7137 20C63.9382 20 58.8796 20.1806 55.5375 20.5418C54.4604 20.6683 53.5199 21.093 52.7161 21.8154C51.9124 22.538 51.3828 23.4322 51.127 24.498C50.6523 26.5941 50.4148 29.7555 50.4148 33.983C50.4148 38.2826 50.6523 41.4443 51.127 43.4679C51.3648 44.5333 51.8899 45.4282 52.7025 46.1503C53.5152 46.873 54.4511 47.2884 55.5102 47.3969C58.8708 47.7763 63.9388 47.966 70.7139 47.966C77.4885 47.966 82.5574 47.7763 85.9168 47.3969C86.9763 47.2884 87.9075 46.873 88.7113 46.1503C89.5151 45.4283 90.0447 44.5333 90.3002 43.4679C90.7749 41.3719 91.0127 38.2105 91.0127 33.983C91.0126 29.6834 90.7748 26.5215 90.3004 24.498ZM62.0031 27.2356H59.0721V42.6546H56.3329V27.2356H53.4565V24.6883H62.0032V27.2356H62.0031ZM69.3991 42.6546H66.9611V41.1909C65.975 42.2933 65.0433 42.8442 64.1667 42.8442C63.3268 42.8442 62.7971 42.5097 62.5782 41.8415C62.4323 41.408 62.3589 40.7482 62.3589 39.8631V29.2676H64.7969V39.1316C64.7969 39.7094 64.8061 40.0258 64.8245 40.0801C64.8793 40.4595 65.0709 40.6491 65.3998 40.6491C65.8928 40.6491 66.4136 40.2697 66.9612 39.511V29.2676H69.3992V42.6546H69.3991ZM78.7129 38.6437C78.7129 39.9625 78.6309 40.8664 78.4673 41.3543C78.156 42.3473 77.5082 42.8442 76.5222 42.8442C75.6455 42.8442 74.7965 42.3473 73.9742 41.3543V42.6549H71.5366V24.6883H73.9742V30.5688C74.7599 29.5938 75.6088 29.1059 76.5222 29.1059C77.5082 29.1059 78.156 29.6119 78.4673 30.6234C78.6308 31.093 78.7129 31.9872 78.7129 33.3061V38.6437ZM87.9719 36.422H83.0686V38.7796C83.0686 40.0262 83.4883 40.6491 84.3285 40.6491C84.931 40.6491 85.2965 40.3243 85.4242 39.6734C85.4603 39.4929 85.479 38.942 85.479 38.0207H87.9718V38.3729C87.9718 39.2583 87.9531 39.782 87.9169 39.9449C87.8625 40.4321 87.6713 40.92 87.3417 41.4079C86.6843 42.3655 85.6973 42.8442 84.3826 42.8442C83.1231 42.8442 82.1368 42.3834 81.4243 41.4624C80.895 40.7939 80.6304 39.7461 80.6304 38.3188V33.6304C80.6304 32.2033 80.8858 31.1554 81.3967 30.4869C82.1093 29.5658 83.0863 29.1051 84.3285 29.1051C85.5523 29.1051 86.5209 29.5658 87.2321 30.4869C87.7259 31.1554 87.9719 32.2033 87.9719 33.6304V36.422Z" fill="white"/>
<path d="M75.2062 31.3003C74.786 31.3003 74.3755 31.4997 73.9736 31.8966V40.0531C74.3754 40.4504 74.786 40.6491 75.2062 40.6491C75.918 40.6491 76.2751 40.0443 76.2751 38.8333V33.116C76.275 31.9054 75.9188 31.3003 75.2062 31.3003Z" fill="white"/>
<path d="M84.3012 31.3003C83.4794 31.3003 83.0686 31.9149 83.0686 33.1426V34.3892H85.5338V33.1426C85.5338 31.9142 85.1227 31.3003 84.3012 31.3003Z" fill="white"/>
</g>
<path d="M32.2021 84H27.2036L24.3999 73.125C24.2961 72.738 24.1167 71.9403 23.8618 70.7319C23.6164 69.5142 23.4748 68.6976 23.437 68.2822C23.3804 68.792 23.2388 69.6133 23.0122 70.7461C22.7856 71.8695 22.611 72.6719 22.4883 73.1533L19.6987 84H14.7144L9.43262 63.2979H13.7515L16.3994 74.5977C16.862 76.6839 17.1971 78.4917 17.4048 80.021C17.4614 79.4829 17.5889 78.6522 17.7871 77.5288C17.9948 76.396 18.1883 75.5181 18.3677 74.895L21.3838 63.2979H25.5327L28.5488 74.895C28.681 75.4142 28.8462 76.2072 29.0444 77.2739C29.2427 78.3407 29.3937 79.2563 29.4976 80.021C29.592 79.2847 29.743 78.369 29.9507 77.2739C30.1584 76.1694 30.3472 75.2773 30.5171 74.5977L33.1509 63.2979H37.4697L32.2021 84ZM51.998 84H40.0752V63.2979H51.998V66.8945H44.4648V71.4399H51.4741V75.0366H44.4648V80.375H51.998V84ZM56.3311 63.2979H62.7739C65.7098 63.2979 67.8385 63.7179 69.1602 64.5581C70.4912 65.3888 71.1567 66.7152 71.1567 68.5371C71.1567 69.7738 70.8641 70.7886 70.2788 71.5815C69.703 72.3745 68.9336 72.8512 67.9707 73.0117V73.1533C69.2829 73.446 70.2269 73.9935 70.8027 74.7959C71.388 75.5983 71.6807 76.665 71.6807 77.9961C71.6807 79.8841 70.9963 81.3568 69.6274 82.4141C68.2681 83.4714 66.4178 84 64.0767 84H56.3311V63.2979ZM60.7207 71.4966H63.2695C64.459 71.4966 65.318 71.3125 65.8467 70.9443C66.3848 70.5762 66.6538 69.9673 66.6538 69.1177C66.6538 68.3247 66.3612 67.7583 65.7759 67.4185C65.2 67.0692 64.2843 66.8945 63.0288 66.8945H60.7207V71.4966ZM60.7207 74.98V80.375H63.5811C64.7894 80.375 65.6815 80.1437 66.2573 79.6812C66.8332 79.2186 67.1211 78.5106 67.1211 77.5571C67.1211 75.839 65.8939 74.98 63.4395 74.98H60.7207ZM84.5806 84L79.5962 67.7583H79.4688C79.6481 71.0623 79.7378 73.2666 79.7378 74.3711V84H75.8154V63.2979H81.791L86.6904 79.1289H86.7754L91.9722 63.2979H97.9478V84H93.8555V74.2012C93.8555 73.7386 93.8602 73.2052 93.8696 72.6011C93.8885 71.9969 93.9546 70.3921 94.0679 67.7866H93.9404L88.6021 84H84.5806Z" fill="white"/>
<defs>
<clipPath id="clip0">
<rect width="71" height="28" fill="white" transform="translate(20 20)"/>
</clipPath>
</defs>
</svg>
